# xmcd
#
# Track frame offsets:
#	150
#	12578
#	25665
#	38764
#	51947
#	64477
#	76849
#	90146
#	102151
#	117172
#	129934
#	143357
#	155872
#	168810
#	180396
#	194740
#	205326
#	215711
#	227703
#	240526
#
# Disc length: 3354 seconds
#
# Revision: 1
# Processed by: cddbd v1.5.2PL0 Copyright (c) Steve Scherf et al.
# Submitted via: audiograbber 1.83.01
#
DISCID=080d1814
DTITLE=los rogacianos - 20 sones jarochos y hustecos
DYEAR=1900
DGENRE=
TTITLE0=la bamba
TTITLE1=rogaciano el huapanguero
TTITLE2=la bruja
TTITLE3=el michoacano
TTITLE4=maria chuchena
TTITLE5=el milpero
TTITLE6=el colas
TTITLE7=miramar
TTITLE8=el canelo
TTITLE9=el huerfanito
TTITLE10=el cascabel
TTITLE11=el huasteco
TTITLE12=cupido
TTITLE13=huapanguero
TTITLE14=el balaju
TTITLE15=escolleras
TTITLE16=el coco
TTITLE17=nada de na
TTITLE18=fiesta jarocha
TTITLE19=las poblanitas
EXTD=
EXTT0=
EXTT1=
EXTT2=
EXTT3=
EXTT4=
EXTT5=
EXTT6=
EXTT7=
EXTT8=
EXTT9=
EXTT10=
EXTT11=
EXTT12=
EXTT13=
EXTT14=
EXTT15=
EXTT16=
EXTT17=
EXTT18=
EXTT19=
PLAYORDER=
